<svg width="31" height="38" viewBox="0 0 31 38" fill="none" xmlns="http://www.w3.org/2000/svg">
<path d="M30.4084 0.727825L25.4318 0.00766245C25.2845 -0.0211441 25.1373 0.0364654 25.0784 0.0940785L22.9582 2.80189C22.8109 2.97473 22.7815 3.20518 22.8404 3.40683C22.8993 3.60847 22.7226 3.78132 22.5165 3.75251L20.7791 3.37802C20.514 3.32041 20.2196 3.40683 20.0429 3.63729L13.1522 12.2792C13.0344 12.4521 12.7988 12.5097 12.5927 12.4233L9.97187 11.271C9.73629 11.1558 9.47127 11.1846 9.26514 11.3286L7.94001 12.2216C7.73387 12.3657 7.4394 12.3945 7.20382 12.2792L6.55598 11.9624C6.14372 11.7607 5.64311 11.9912 5.52532 12.4233L5.05416 14.4685C4.93637 14.9582 5.1425 15.448 5.58421 15.7072L6.58542 16.3122L9.79519 18.2422L11.3559 19.1928C11.7976 19.4521 12.3571 19.3944 12.7399 19.0776L15.3607 16.8307C15.5669 16.6578 15.8908 16.6002 16.1264 16.7443L16.9215 17.1475C17.1865 17.2916 17.5104 17.234 17.7165 17.0323L19.0417 15.8224C19.2478 15.6208 19.5717 15.592 19.8073 15.7072L21.7803 16.6002C22.0748 16.7443 22.4281 16.6578 22.6343 16.3986L23.5471 15.2463L30.4673 6.57554C30.7912 6.17225 30.585 5.56732 30.055 5.45209L28.5237 5.10641C28.1998 5.0488 28.0526 4.64551 28.2881 4.41506L30.6734 1.5056C30.909 1.15992 30.7617 0.785438 30.4084 0.727825Z" fill="#E1E1E6"/>
<path d="M7.58384 18.1833C7.4366 18.0969 7.28936 18.2409 7.34826 18.385L8.08444 20.2862C8.14334 20.4302 8.14333 20.5743 8.11389 20.7183L7.46605 23.1956C7.4366 23.3685 7.49549 23.5413 7.61328 23.6277L9.46847 25.0393C9.64515 25.1545 9.88073 25.1545 10.028 25.0105L11.9715 23.3397C12.0893 23.2533 12.2365 23.1956 12.3543 23.1668L14.5629 22.9364C14.7101 22.9076 14.769 22.7059 14.6218 22.6195L7.58384 18.1833Z" fill="#E1E1E6"/>
<path d="M6.93619 24.5814C6.8184 24.4949 6.64171 24.4661 6.49448 24.5237L4.93377 25.2727C4.84543 25.3015 4.78653 25.3879 4.72763 25.4744L1.40008 33.5114C1.40008 33.5402 1.40008 33.5402 1.40008 33.569C1.42953 33.5978 1.45897 33.6266 1.51787 33.6266L2.2835 33.3385C2.31295 33.3385 2.34239 33.3385 2.37184 33.3385C2.40129 33.3673 2.43074 33.425 2.40129 33.4538L0.0160511 37.285C-0.0428437 37.3715 0.0749485 37.4579 0.133843 37.3714L8.76193 28.9023C8.85027 28.8159 8.87972 28.7295 8.90916 28.6143L9.08585 26.425C9.08585 26.2809 9.02695 26.1657 8.93861 26.0793L6.93619 24.5814Z" fill="#E1E1E6"/>
</svg>
